<?xml version="1.0" encoding="utf-8"?>
<!-- Generator: Adobe Illustrator 22.1.0, SVG Export Plug-In . SVG Version: 6.00 Build 0)  -->
<svg version="1.1" id="Layer_1" xmlns="http://www.w3.org/2000/svg" xmlns:xlink="http://www.w3.org/1999/xlink" x="0px" y="0px"
	 viewBox="0 0 166.5 64.1" style="enable-background:new 0 0 166.5 64.1;" xml:space="preserve">
<style type="text/css">
	.st0{fill:#4E4637;stroke:#FFD05A;stroke-miterlimit:10;}
	.st1{fill:#4E4637;stroke:#FFD05A;stroke-width:0.7;stroke-miterlimit:10;}
	.st2{fill:#4E4637;stroke:#000000;stroke-miterlimit:10;}
	.st3{fill:none;stroke:#FFD05A;stroke-width:0.7;stroke-miterlimit:10;}
	.st4{fill:#4E4637;}
	.st5{font-family:'Montserrat-Bold';}
	.st6{font-size:32.3331px;}
</style>
<title>logo on dark</title>
<path class="st0" d="M18.4,49c-1.1-0.6-4-8.8,3.3-15.6l0-0.1c8.9-8.6,5.3-18.4,0.4-22.8c0,0-0.1,0-0.1,0c-3.5-2.6-6.6-5.1-12.2-3
	S0.9,19.2,6.1,24c0,0,0.1,0.1,0.1,0.1c2.7,0.9,5.2,1.2,6.7,0.4c0.7-0.4,1.2-1.1,1.4-1.9c0.1-0.5-12.7,19.3,3.8,28.1
	c0.2,0.1,0.4-0.2,0.4-0.4c0-0.6,0-0.9,0-1C18.6,49.2,18.5,49.1,18.4,49z"/>
<path class="st1" d="M34.3,48.9c2.5,1.9,6,2.3,8.9,0.9c0.2-0.1,0.4,0,0.5,0.1c0.6,0.8,1.4,1.4,2.4,1.8c0.8,0.3,1.8,0.2,2.5-0.4
	c1.7-1.3,0.2-2.8-0.9-3.7c-0.2-0.1-0.2-0.4-0.1-0.5c0.1-0.1,0.2-0.2,0.3-0.2l1.2-0.1c0.1,0,0.3-0.1,0.3-0.2c0.4-0.6,1.4-2.8,0.5-4.1
	c-0.1-0.1-0.1-0.3,0-0.4c1.2-2.6-1.9-7.4-2.4-8.1c0-0.1-0.1-0.1-0.1-0.2c0.1-1.1-0.5-2.1-1.3-2.8c-0.3-0.3-0.8-0.3-1.1,0
	c-0.1,0.1-0.2,0.2-0.2,0.3c-0.1,0.2-0.4,0.3-0.5,0.1c-0.1,0-0.1-0.1-0.2-0.2c-0.2-0.4-0.4-0.8-0.8-1.1c-0.2-0.1-1.2-0.3-1.3-0.2
	c-1.1,1.7-0.2,1.4-0.7,1.9c-0.4,0.4-4.5,2.8-6.2,2.6c-0.1,0-0.1,0-0.2-0.1c-0.4-0.4-3.2-1.1-4.5-1.4c-4.2-0.3-8.2,2-10.1,5.7
	c-2.5,4.4-2.8,6.5-2.2,12.7c0.6,7,11,5.5,11.2,5.5l7.3,0.1c0,0,3.6,0,3.4-0.2c0-0.1,0.1-2-0.9-2.2c0,0-5.3-0.4-5.1-0.7
	c2-3.3,4.2-3.5,4.2-3.5"/>
<path class="st2" d="M32.4,33.6"/>
<line class="st3" x1="34.5" y1="54.2" x2="30" y2="53.8"/>
<path class="st1" d="M37.7,46.5c2,1.9,6,0.9,6,0.9c0.8,0.4,1.5,0.9,2.1,1.4c1.1,1.1,2.5,1.8,0.3,3c0,0-2.6-0.5-3.4-2
	c-1.2,0.6-7.1,1.6-8.9-0.8"/>
<text transform="matrix(1 0 0 1 53.4942 47.3975)" class="st4 st5 st6">Nibble</text>
</svg>
