<svg id="Layer_1" data-name="Layer 1" xmlns="http://www.w3.org/2000/svg" viewBox="0 0 166.47 71.54"><defs><style>.cls-1,.cls-2,.cls-3,.cls-4{fill:#ffd05a;}.cls-1,.cls-2{stroke:#fff;}.cls-1,.cls-2,.cls-3{stroke-miterlimit:10;}.cls-2{stroke-width:0.7px;}.cls-3{stroke:#000;}.cls-4{font-size:27.19px;font-family:Montserrat-Bold, Montserrat;font-weight:700;}</style></defs><title>logo on white</title><path class="cls-1" d="M59,84.66c-1.59-.8-5.62-12.36,4.61-21.91l.07-.09c12.55-12.13,7.44-25.84.52-31.94a.39.39,0,0,0-.11-.06c-4.9-3.68-9.33-7.1-17.19-4.15S34.38,42.9,41.64,49.57a.57.57,0,0,0,.21.13c3.77,1.33,7.24,1.69,9.39.51a4,4,0,0,0,2-2.61c.19-.7-17.89,27.12,5.36,39.46.29.15.61-.24.61-.57,0-.81,0-1.23,0-1.45A.41.41,0,0,0,59,84.66Z" transform="translate(-37.53 -24.89)"/><path class="cls-2" d="M81.29,84.55a12.06,12.06,0,0,0,12.43,1.3.54.54,0,0,1,.66.16,8.48,8.48,0,0,0,3.33,2.57,3.4,3.4,0,0,0,3.45-.61c2.32-1.88.27-4-1.31-5.16a.55.55,0,0,1,.31-1l1.73-.08a.53.53,0,0,0,.45-.28c.51-.91,2-4,.73-5.7a.54.54,0,0,1-.06-.56c1.68-3.64-2.7-10.36-3.42-11.42a.59.59,0,0,1-.09-.31,4.49,4.49,0,0,0-1.88-3.88,1.07,1.07,0,0,0-1.78.42.56.56,0,0,1-1-.07,3.66,3.66,0,0,0-1.1-1.55c-.25-.19-1.68-.49-1.86-.22-1.61,2.37-.28,1.92-1,2.66-.53.57-6.32,3.9-8.7,3.61a.49.49,0,0,1-.27-.13c-.62-.53-4.49-1.61-6.37-1.94a15,15,0,0,0-14.22,8c-3.55,6.22-3.89,9.18-3.11,17.77.89,9.78,15.46,7.74,15.76,7.77l10.21.17s5,0,4.82-.34c-.06-.09.08-2.83-1.27-3.11,0,0-7.39-.54-7.15-.93,2.79-4.63,5.87-4.85,5.87-4.85" transform="translate(-37.53 -24.89)"/><path class="cls-3" d="M78.54,63" transform="translate(-37.53 -24.89)"/><line class="cls-2" x1="43.98" y1="67.12" x2="37.65" y2="66.49"/><path class="cls-2" d="M86.07,81.12c2.75,2.69,8.37,1.33,8.37,1.33a12.77,12.77,0,0,1,3,2c1.54,1.48,3.46,2.46.37,4.18,0,0-3.61-.68-4.8-2.77-1.73.85-10,2.26-12.46-1.19" transform="translate(-37.53 -24.89)"/><text class="cls-4" transform="translate(73.47 61.48)">Nibble</text></svg>