<?xml version="1.0" encoding="utf-8"?>
<!-- Generator: Adobe Illustrator 22.1.0, SVG Export Plug-In . SVG Version: 6.00 Build 0)  -->
<svg version="1.1" id="e96d43fc-c2ba-4d44-92c2-c0adf9da4e64"
	 xmlns="http://www.w3.org/2000/svg" xmlns:xlink="http://www.w3.org/1999/xlink" x="0px" y="0px" viewBox="0 0 862.8 574"
	 style="enable-background:new 0 0 862.8 574;" xml:space="preserve">
<style type="text/css">
	.st0{fill:#4E4637;}
	.st1{fill:#F2F2F2;}
	.st2{fill:url(#SVGID_1_);}
	.st3{fill:#00BAA5;}
	.st4{fill:#F55F44;}
	.st5{fill:#FDA57D;}
	.st6{opacity:5.000000e-02;enable-background:new    ;}
	.st7{opacity:0.7;}
	.st8{fill:url(#SVGID_2_);}
	.st9{opacity:0.1;enable-background:new    ;}
	.st10{fill:#E0E0E0;}
	.st11{fill:url(#SVGID_3_);}
	.st12{fill:#FFFFFF;}
	.st13{fill:#EEEEEE;}
	.st14{opacity:0.1;fill:#535461;enable-background:new    ;}
	.st15{opacity:0.5;}
	.st16{fill:url(#SVGID_4_);}
	.st17{fill:#F5F5F5;}
	.st18{fill:url(#SVGID_5_);}
	.st19{fill:url(#SVGID_6_);}
	.st20{opacity:0.6;}
	.st21{fill:#BDBDBD;}
	.st22{fill:url(#SVGID_7_);}
	.st23{opacity:0.6;fill:#3AD29F;enable-background:new    ;}
	.st24{fill:url(#SVGID_8_);}
	.st25{fill:url(#SVGID_9_);}
	.st26{fill:#69F0AE;}
</style>
<title>Organizing projects</title>
<path class="st0" d="M105.4,505.6c0,18.9-11.2,25.5-25.1,25.5c-0.3,0-0.6,0-1,0c-0.6,0-1.3,0-1.9-0.1c-12.5-0.9-22.2-7.8-22.2-25.4
	c0-18.2,23.2-41.1,25-42.8l0,0c0.1-0.1,0.1-0.1,0.1-0.1S105.4,486.7,105.4,505.6z"/>
<path class="st1" d="M79.4,528.2l9.2-12.8l-9.2,14.2l0,1.5c-0.6,0-1.3,0-1.9-0.1l1-18.9l0-0.1l0,0l0.1-1.8l-9.2-14.3l9.2,12.9l0,0.4
	l0.7-14.3l-7.9-14.7l8,12.2l0.8-29.6l0-0.1v0.1l-0.1,23.3l7.9-9.3l-7.9,11.3l-0.2,12.8l7.3-12.3l-7.4,14.1l-0.1,7.1l10.6-17.1
	l-10.7,19.5L79.4,528.2z"/>
<linearGradient id="SVGID_1_" gradientUnits="userSpaceOnUse" x1="491.8142" y1="-75.0895" x2="491.8142" y2="298.2234" gradientTransform="matrix(1 0 0 -1 -168.578 411)">
	<stop  offset="0" style="stop-color:#808080;stop-opacity:0.25"/>
	<stop  offset="0.5351" style="stop-color:#808080;stop-opacity:0.12"/>
	<stop  offset="1" style="stop-color:#808080;stop-opacity:0.1"/>
</linearGradient>
<path class="st2" d="M423.9,396.4c-6.7-24.3-43.9-42.2-72.9-46.9v-11.7c0.5-0.2,1.1-0.4,1.6-0.6c-0.2-2.3-0.6-4.6-1.4-6.8
	c12.4-5,23.1-13.5,30.9-24.4c30.3-31.7,29.1-81.9-2.5-112.2c-4-3.8-8.4-7.2-13.1-10.1c7.3-4.6,9.5-14.2,4.9-21.5
	c-2.6-4.1-7-6.8-11.8-7.2c6.5-15.5-0.7-33.3-16.1-39.8c-10.4-4.4-22.4-2.7-31.2,4.5c14.8-7.9,33.2-2.3,41.1,12.6
	c2.3,4.4,3.6,9.3,3.6,14.3c0,0.3,0,0.5,0,0.8c-0.5-16.8-14.5-30-31.3-29.5c-16.8,0.5-30,14.5-29.5,31.3c0.1,3.3,0.7,6.5,1.8,9.5
	c-8.2,1.8-13.4,9.9-11.6,18.1c0.3,1.5,0.9,2.9,1.6,4.2c-38.8,20.4-53.7,68.4-33.3,107.2c3.7,7,8.4,13.4,14,19.1
	c7.4,9.9,17.3,17.8,28.6,22.7v19.5c-29.3,4.2-67.9,22.4-74.7,47.4c-5.9,21.7-12.2,45.6-15.3,59.5c26.8,18.8,82.9,29.9,118.1,29.9
	c33.4,0,88.1-10,114.1-27.1C436.5,443.6,430.1,418.7,423.9,396.4z M370.3,171.9c0,0.3,0,0.6,0,0.8c-0.4-7.1-5.6-12.9-12.6-14.1
	c0.3-0.5,0.6-1,0.8-1.5C365.4,158.6,370.3,164.8,370.3,171.9z"/>
<path class="st3" d="M325.2,480.8c32.5,0,85.6-9.7,110.9-26.3c-2.7-14.9-9-39.1-15-60.8c-7.6-27.6-55.5-46.7-84.1-46.7h-27.5
	c-28.7,0-76.7,19.2-84.2,46.9c-5.7,21.1-11.8,44.3-14.8,57.9C236.4,470,291,480.8,325.2,480.8z"/>
<circle class="st4" cx="324.7" cy="252.6" r="77.1"/>
<path class="st5" d="M303.9,306.2h40.3c3.3,0,6,2.7,6,6l0,0v41.2c0,13.7-11.1,24.8-24.8,24.8l0,0h-2.8c-13.7,0-24.8-11.1-24.8-24.8
	l0,0v-41.2C297.8,308.9,300.5,306.2,303.9,306.2L303.9,306.2z"/>
<path class="st6" d="M326.5,341.1c8.7,0,17.3-1.7,25.3-4.9c-0.9-13.2-11.8-23.5-25-23.5h-2.1c-13,0-23.8,9.9-25,22.9
	C308.1,339.2,317.2,341.1,326.5,341.1z"/>
<circle class="st5" cx="324.8" cy="266.3" r="68.2"/>
<circle class="st4" cx="301.7" cy="177.1" r="14.8"/>
<circle class="st4" cx="354.2" cy="177.1" r="14.8"/>
<circle class="st4" cx="326.3" cy="152.5" r="29.5"/>
<path class="st4" d="M357.5,159.1c-2.9,0-5.8,0.9-8.2,2.5c7.7-2.7,16.1,1.3,18.9,8.9c2.3,6.4-0.1,13.4-5.7,17.2
	c7.7-2.7,11.7-11.2,8.9-18.8C369.3,163,363.7,159.1,357.5,159.1z"/>
<path class="st4" d="M331.2,118.1c-6.9,0-13.5,2.4-18.8,6.7c14.4-7.7,32.3-2.2,39.9,12.2c6.6,12.4,3.5,27.7-7.3,36.6
	c14.4-7.7,19.9-25.5,12.2-39.9C352.2,124.1,342.2,118.1,331.2,118.1z"/>
<path class="st4" d="M275.5,205c0,0,8.2,54.1,111.5,24.6l-50.8-44.3L275.5,205z"/>
<path class="st3" d="M59.5,515H102c7.9,0,14.3,6.4,14.3,14.3v1.6c0,7.9-6.4,14.3-14.3,14.3H59.5c-7.9,0-14.3-6.4-14.3-14.3v-1.6
	C45.2,521.4,51.6,515,59.5,515z"/>
<g class="st7">
	
		<linearGradient id="SVGID_2_" gradientUnits="userSpaceOnUse" x1="743.5615" y1="-134.8148" x2="743.5615" y2="-73.8022" gradientTransform="matrix(1 0 0 -1 -168.578 411)">
		<stop  offset="0" style="stop-color:#808080;stop-opacity:0.25"/>
		<stop  offset="0.5351" style="stop-color:#808080;stop-opacity:0.12"/>
		<stop  offset="1" style="stop-color:#808080;stop-opacity:0.1"/>
	</linearGradient>
	<path class="st8" d="M595.1,495.7v-10.9h-54.5v50.4c0,5.9,4.8,10.6,10.6,10.6h33.2c5.9,0,10.6-4.8,10.6-10.6V524
		c7.8,0,14.2-6.3,14.2-14.2C609.3,502.1,603,495.7,595.1,495.7C595.1,495.7,595.1,495.7,595.1,495.7L595.1,495.7z M595.1,518.6
		v-17.4c4.8,0,8.7,3.9,8.7,8.7C603.8,514.7,599.9,518.6,595.1,518.6L595.1,518.6z"/>
</g>
<path class="st3" d="M593.4,497.4c-7.1,0-12.9,5.8-12.9,12.9s5.8,12.9,12.9,12.9s12.9-5.8,12.9-12.9S600.5,497.4,593.4,497.4
	L593.4,497.4z M593.4,518.3c-4.4,0-8-3.6-8-8c0-4.4,3.6-8,8-8c4.4,0,8,3.6,8,8l0,0C601.3,514.7,597.8,518.3,593.4,518.3z"/>
<path class="st9" d="M593.4,497.4c-7.1,0-12.9,5.8-12.9,12.9s5.8,12.9,12.9,12.9s12.9-5.8,12.9-12.9S600.5,497.4,593.4,497.4
	L593.4,497.4z M593.4,518.3c-4.4,0-8-3.6-8-8c0-4.4,3.6-8,8-8c4.4,0,8,3.6,8,8l0,0C601.3,514.7,597.8,518.3,593.4,518.3z"/>
<path class="st3" d="M543.6,487.5h49.7l0,0v46c0,5.4-4.4,9.8-9.8,9.8h-30.2c-5.4,0-9.8-4.4-9.8-9.8V487.5L543.6,487.5z"/>
<rect y="543.2" class="st10" width="645.6" height="21.9"/>
<g class="st7">
	
		<linearGradient id="SVGID_3_" gradientUnits="userSpaceOnUse" x1="322.8031" y1="30.8379" x2="322.8031" y2="188.9391" gradientTransform="matrix(1 0 0 -1 0 574)">
		<stop  offset="0" style="stop-color:#808080;stop-opacity:0.25"/>
		<stop  offset="0.5351" style="stop-color:#808080;stop-opacity:0.12"/>
		<stop  offset="1" style="stop-color:#808080;stop-opacity:0.1"/>
	</linearGradient>
	<path class="st11" d="M200,385.1h245.6c8,0,14.5,6.5,14.5,14.5v129.1c0,8-6.5,14.5-14.5,14.5H200c-8,0-14.5-6.5-14.5-14.5V399.6
		C185.5,391.6,192,385.1,200,385.1z"/>
</g>
<path class="st0" d="M217.3,388h210.9c14.8,0,26.8,12,26.8,26.8v101.5c0,14.8-12,26.8-26.8,26.8H217.3c-14.8,0-26.8-12-26.8-26.8
	V414.8C190.5,400,202.5,388,217.3,388z"/>
<circle class="st12" cx="322.8" cy="465.6" r="9"/>
<rect x="27.4" y="565" class="st10" width="590.9" height="9"/>
<rect x="27.4" y="565" class="st9" width="590.9" height="3"/>
<path class="st9" d="M584.4,487.5v46c0,5.4-4.3,9.7-9.7,9.7h5c5.4,0,9.7-4.3,9.7-9.7v-46H584.4z"/>
<path class="st13" d="M553.5,450.4c-0.9,0-1.7,0.4-2.2,1.1c-0.7,1.2,0.5,2.5,1.6,3.3c2,1.5,4.1,3,5.4,5.1s1.8,5,0.3,7
	c-1.9,2.6-6.5,3.2-7,6.4c-0.3,2.1,1.5,3.8,3.3,4.9c4.5,2.6,10.3,3.3,13.5,7.3c1.3-2.8,4.3-4.4,7.3-5s6.1-0.6,9.1-1.1
	c1,0,1.9-0.5,2.5-1.3c0.8-1.7-1.6-3.8-0.7-5.5c0.6-1.3,2.5-1.2,3.9-1.7c2.2-0.9,3.1-3.7,2.5-6s-2.4-4.1-4.3-5.6
	c-5-4-11.1-6.3-17.2-8c-2.9-0.8-6.2-2-9.2-2.1C559.5,449,556.3,449.9,553.5,450.4z"/>
<rect x="428.4" class="st14" width="434.5" height="297.7"/>
<g class="st15">
	
		<linearGradient id="SVGID_4_" gradientUnits="userSpaceOnUse" x1="519.1213" y1="450.3219" x2="519.1213" y2="544.6842" gradientTransform="matrix(1 0 0 -1 0 574)">
		<stop  offset="0" style="stop-color:#808080;stop-opacity:0.25"/>
		<stop  offset="0.5351" style="stop-color:#808080;stop-opacity:0.12"/>
		<stop  offset="1" style="stop-color:#808080;stop-opacity:0.1"/>
	</linearGradient>
	<path class="st16" d="M472.5,29.3h93.3c2.5,0,4.5,2,4.5,4.5v85.4c0,2.5-2,4.5-4.5,4.5h-93.3c-2.5,0-4.5-2-4.5-4.5V33.8
		C468,31.3,470,29.3,472.5,29.3z"/>
</g>
<path class="st17" d="M473.7,30h90.9c2.5,0,4.5,2,4.5,4.5v83.1c0,2.5-2,4.5-4.5,4.5h-90.9c-2.5,0-4.5-2-4.5-4.5V34.5
	C469.2,32.1,471.2,30,473.7,30z"/>
<path class="st3" d="M481.4,45.2h7.9c2.5,0,4.5,2,4.5,4.5v6.2c0,2.5-2,4.5-4.5,4.5h-7.9c-2.5,0-4.5-2-4.5-4.5v-6.2
	C476.9,47.2,478.9,45.2,481.4,45.2z"/>
<path class="st10" d="M499.6,45.2H565c0.4,0,0.8,0.4,0.8,0.8v0.1c0,0.4-0.4,0.8-0.8,0.8h-65.4c-0.4,0-0.8-0.4-0.8-0.8V46
	C498.8,45.6,499.2,45.2,499.6,45.2z"/>
<path class="st10" d="M499.6,50.3H565c0.4,0,0.8,0.4,0.8,0.8v0.1c0,0.4-0.4,0.8-0.8,0.8h-65.4c-0.4,0-0.8-0.4-0.8-0.8v-0.1
	C498.8,50.6,499.2,50.3,499.6,50.3z"/>
<path class="st10" d="M476,68.6h89c0.4,0,0.8,0.4,0.8,0.8v0.1c0,0.4-0.4,0.8-0.8,0.8h-89c-0.4,0-0.8-0.4-0.8-0.8v-0.1
	C475.2,69,475.6,68.6,476,68.6z"/>
<path class="st10" d="M476,73.7h89c0.4,0,0.8,0.4,0.8,0.8v0.1c0,0.4-0.4,0.8-0.8,0.8h-89c-0.4,0-0.8-0.4-0.8-0.8v-0.1
	C475.2,74,475.6,73.7,476,73.7z"/>
<path class="st10" d="M476,80.4h89c0.4,0,0.8,0.4,0.8,0.8v0.1c0,0.4-0.4,0.8-0.8,0.8h-89c-0.4,0-0.8-0.4-0.8-0.8v-0.1
	C475.2,80.8,475.6,80.4,476,80.4z"/>
<path class="st10" d="M476,85.5h50.6c0.4,0,0.8,0.4,0.8,0.8v0.1c0,0.4-0.4,0.8-0.8,0.8H476c-0.4,0-0.8-0.4-0.8-0.8v-0.1
	C475.2,85.8,475.6,85.5,476,85.5z"/>
<path class="st10" d="M476,92.2h89c0.4,0,0.8,0.4,0.8,0.8v0.1c0,0.4-0.4,0.8-0.8,0.8h-89c-0.4,0-0.8-0.4-0.8-0.8V93
	C475.2,92.5,475.6,92.2,476,92.2z"/>
<path class="st10" d="M476,97.2h89c0.4,0,0.8,0.4,0.8,0.8v0.1c0,0.4-0.4,0.8-0.8,0.8h-89c-0.4,0-0.8-0.4-0.8-0.8V98
	C475.2,97.6,475.6,97.2,476,97.2z"/>
<path class="st10" d="M476,104h89c0.4,0,0.8,0.4,0.8,0.8v0.1c0,0.4-0.4,0.8-0.8,0.8h-89c-0.4,0-0.8-0.4-0.8-0.8v-0.1
	C475.2,104.3,475.6,104,476,104z"/>
<path class="st10" d="M476,109h50.6c0.4,0,0.8,0.4,0.8,0.8v0.1c0,0.4-0.4,0.8-0.8,0.8H476c-0.4,0-0.8-0.4-0.8-0.8v-0.1
	C475.2,109.4,475.6,109,476,109z"/>
<g class="st15">
	
		<linearGradient id="SVGID_5_" gradientUnits="userSpaceOnUse" x1="534.5568" y1="428.5164" x2="534.5568" y2="522.8786" gradientTransform="matrix(1 0 0 -1 0 574)">
		<stop  offset="0" style="stop-color:#808080;stop-opacity:0.25"/>
		<stop  offset="0.5351" style="stop-color:#808080;stop-opacity:0.12"/>
		<stop  offset="1" style="stop-color:#808080;stop-opacity:0.1"/>
	</linearGradient>
	<path class="st18" d="M487.9,51.1h93.3c2.5,0,4.5,2,4.5,4.5V141c0,2.5-2,4.5-4.5,4.5h-93.3c-2.5,0-4.5-2-4.5-4.5V55.6
		C483.4,53.1,485.4,51.1,487.9,51.1z"/>
</g>
<path class="st12" d="M489.2,51.9h90.9c2.5,0,4.5,2,4.5,4.5v83.1c0,2.5-2,4.5-4.5,4.5h-90.9c-2.5,0-4.5-2-4.5-4.5V56.4
	C484.7,53.9,486.7,51.9,489.2,51.9z"/>
<path class="st3" d="M496.9,67h7.9c2.5,0,4.5,2,4.5,4.5v6.2c0,2.5-2,4.5-4.5,4.5h-7.9c-2.5,0-4.5-2-4.5-4.5v-6.2
	C492.4,69,494.4,67,496.9,67z"/>
<path class="st10" d="M515.1,67h65.4c0.4,0,0.8,0.4,0.8,0.8v0.1c0,0.4-0.4,0.8-0.8,0.8h-65.4c-0.4,0-0.8-0.4-0.8-0.8v-0.1
	C514.3,67.4,514.6,67,515.1,67z"/>
<path class="st10" d="M515.1,72.1h65.4c0.4,0,0.8,0.4,0.8,0.8V73c0,0.4-0.4,0.8-0.8,0.8h-65.4c-0.4,0-0.8-0.4-0.8-0.8v-0.1
	C514.3,72.4,514.6,72.1,515.1,72.1z"/>
<path class="st10" d="M491.5,90.4h89c0.4,0,0.8,0.4,0.8,0.8v0.1c0,0.4-0.4,0.8-0.8,0.8h-89c-0.4,0-0.8-0.4-0.8-0.8v-0.1
	C490.7,90.8,491,90.4,491.5,90.4z"/>
<path class="st10" d="M491.5,95.5h89c0.4,0,0.8,0.4,0.8,0.8v0.1c0,0.4-0.4,0.8-0.8,0.8h-89c-0.4,0-0.8-0.4-0.8-0.8v-0.1
	C490.7,95.8,491,95.5,491.5,95.5z"/>
<path class="st10" d="M491.5,102.2h89c0.4,0,0.8,0.4,0.8,0.8v0.1c0,0.4-0.4,0.8-0.8,0.8h-89c-0.4,0-0.8-0.4-0.8-0.8V103
	C490.7,102.6,491,102.2,491.5,102.2z"/>
<path class="st10" d="M491.5,107.3h50.6c0.4,0,0.8,0.4,0.8,0.8v0.1c0,0.4-0.4,0.8-0.8,0.8h-50.6c-0.4,0-0.8-0.4-0.8-0.8v-0.1
	C490.7,107.6,491,107.3,491.5,107.3z"/>
<path class="st10" d="M491.5,114h89c0.4,0,0.8,0.4,0.8,0.8v0.1c0,0.4-0.4,0.8-0.8,0.8h-89c-0.4,0-0.8-0.4-0.8-0.8v-0.1
	C490.7,114.4,491,114,491.5,114z"/>
<path class="st10" d="M491.5,119.1h89c0.4,0,0.8,0.4,0.8,0.8v0.1c0,0.4-0.4,0.8-0.8,0.8h-89c-0.4,0-0.8-0.4-0.8-0.8v-0.1
	C490.7,119.4,491,119.1,491.5,119.1z"/>
<path class="st10" d="M491.5,125.8h89c0.4,0,0.8,0.4,0.8,0.8v0.1c0,0.4-0.4,0.8-0.8,0.8h-89c-0.4,0-0.8-0.4-0.8-0.8v-0.1
	C490.7,126.1,491,125.8,491.5,125.8z"/>
<path class="st10" d="M491.5,130.8h50.6c0.4,0,0.8,0.4,0.8,0.8v0.1c0,0.4-0.4,0.8-0.8,0.8h-50.6c-0.4,0-0.8-0.4-0.8-0.8v-0.1
	C490.7,131.2,491,130.8,491.5,130.8z"/>
<linearGradient id="SVGID_6_" gradientUnits="userSpaceOnUse" x1="656.1298" y1="454.4816" x2="656.1298" y2="508.6031" gradientTransform="matrix(1 0 0 -1 0 574)">
	<stop  offset="0" style="stop-color:#808080;stop-opacity:0.25"/>
	<stop  offset="0.5351" style="stop-color:#808080;stop-opacity:0.12"/>
	<stop  offset="1" style="stop-color:#808080;stop-opacity:0.1"/>
</linearGradient>
<rect x="628" y="65.4" class="st19" width="56.3" height="54.1"/>
<rect x="628.8" y="66.7" class="st17" width="54.6" height="51.7"/>
<g class="st20">
	<rect x="646.7" y="97.4" class="st3" width="19.7" height="2.7"/>
</g>
<rect x="639.3" y="102.3" class="st21" width="33.6" height="2.7"/>
<g class="st15">
	
		<linearGradient id="SVGID_7_" gradientUnits="userSpaceOnUse" x1="771.5139" y1="411.6354" x2="771.5139" y2="555.9595" gradientTransform="matrix(1 0 0 -1 0 574)">
		<stop  offset="0" style="stop-color:#808080;stop-opacity:0.25"/>
		<stop  offset="0.5351" style="stop-color:#808080;stop-opacity:0.12"/>
		<stop  offset="1" style="stop-color:#808080;stop-opacity:0.1"/>
	</linearGradient>
	<rect x="710.1" y="18" class="st22" width="122.8" height="144.3"/>
</g>
<rect x="713.9" y="20.4" class="st12" width="116.4" height="138.8"/>
<rect x="731.3" y="81.3" class="st10" width="81.9" height="3.5"/>
<rect x="731.3" y="104.2" class="st10" width="81.9" height="3.5"/>
<rect x="731.3" y="110.3" class="st10" width="81.9" height="3.5"/>
<rect x="731.3" y="98.1" class="st10" width="34.6" height="3.5"/>
<rect x="787.3" y="98.1" class="st23" width="25.8" height="3.5"/>
<rect x="760" y="124.5" class="st3" width="25.8" height="3.5"/>
<g class="st15">
	
		<linearGradient id="SVGID_8_" gradientUnits="userSpaceOnUse" x1="674.9193" y1="311.0966" x2="674.9193" y2="371.0443" gradientTransform="matrix(1 0 0 -1 0 574)">
		<stop  offset="0" style="stop-color:#808080;stop-opacity:0.25"/>
		<stop  offset="0.5351" style="stop-color:#808080;stop-opacity:0.12"/>
		<stop  offset="1" style="stop-color:#808080;stop-opacity:0.1"/>
	</linearGradient>
	<rect x="638.4" y="203" class="st24" width="73" height="59.9"/>
</g>
<rect x="639.3" y="204.1" class="st1" width="71.1" height="57.8"/>
<rect x="639.3" y="204.1" class="st3" width="71.1" height="12.9"/>
<rect x="639.3" y="204.1" class="st9" width="71.1" height="12.9"/>
<rect x="644.9" y="221.7" class="st10" width="59.8" height="7.5"/>
<rect x="644.9" y="234.8" class="st10" width="43.6" height="2.6"/>
<rect x="644.9" y="239.2" class="st10" width="28.3" height="2.6"/>
<rect x="644.9" y="243.6" class="st10" width="37.4" height="2.6"/>
<rect x="644.9" y="248" class="st10" width="43.6" height="2.6"/>
<rect x="644.9" y="252.4" class="st10" width="14.6" height="2.6"/>
<g class="st15">
	
		<linearGradient id="SVGID_9_" gradientUnits="userSpaceOnUse" x1="637.9585" y1="318.7281" x2="637.9585" y2="393.0316" gradientTransform="matrix(1 0 0 -1 0 574)">
		<stop  offset="0" style="stop-color:#808080;stop-opacity:0.25"/>
		<stop  offset="0.5351" style="stop-color:#808080;stop-opacity:0.12"/>
		<stop  offset="1" style="stop-color:#808080;stop-opacity:0.1"/>
	</linearGradient>
	<rect x="592.7" y="181" class="st25" width="90.5" height="74.3"/>
</g>
<rect x="593.8" y="182.4" class="st12" width="88.2" height="71.7"/>
<rect x="593.8" y="182.4" class="st3" width="88.2" height="16"/>
<rect x="600.8" y="204.2" class="st17" width="74.1" height="9.3"/>
<rect x="600.8" y="220.5" class="st10" width="54.1" height="3.2"/>
<rect x="600.8" y="225.9" class="st10" width="35.1" height="3.2"/>
<rect x="600.8" y="231.4" class="st10" width="46.4" height="3.2"/>
<rect x="600.8" y="236.8" class="st10" width="54.1" height="3.2"/>
<rect x="600.8" y="242.3" class="st10" width="18.1" height="3.2"/>
<rect x="604.7" y="207.3" class="st26" width="21.1" height="2.8"/>
<circle class="st14" cx="469.4" cy="366.1" r="12.2"/>
<circle class="st14" cx="492.1" cy="326.8" r="12.2"/>
</svg>
