<?xml version="1.0" encoding="utf-8"?>
<!-- Generator: Adobe Illustrator 22.1.0, SVG Export Plug-In . SVG Version: 6.00 Build 0)  -->
<svg version="1.1" id="b4850822-491f-41e2-90b8-9be7376dfe8f"
	 xmlns="http://www.w3.org/2000/svg" xmlns:xlink="http://www.w3.org/1999/xlink" x="0px" y="0px" viewBox="0 0 798.6 689.2"
	 style="enable-background:new 0 0 798.6 689.2;" xml:space="preserve">
<style type="text/css">
	.st0{fill:#A0616A;}
	.st1{fill:#B4AA99;}
	.st2{fill:#2F2E41;}
	.st3{fill:#00BAA5;}
	.st4{fill:#4E4637;}
	.st5{fill:#434637;}
	.st6{fill:none;stroke:#D0CDE1;stroke-width:2;stroke-miterlimit:10;}
	.st7{fill:#D0CDE1;}
	.st8{fill:#3F3D56;}
</style>
<title>dev_productivity</title>
<circle class="st0" cx="435.9" cy="118.4" r="73.5"/>
<path class="st0" d="M381,155.2c0,0,13.9,104.4-7.5,116.2s126.8,12.8,126.8,12.8s-33-90.6-18.1-118.3L381,155.2z"/>
<path class="st1" d="M608.6,284.7l-12.3,56.1l-26,118.7l-0.8,6.5l-9,75.2l-6,50l-4,33.6c-24.4,12.5-42,21.2-42,21.2s-1.5-7.6-4-17.4
	c-17.1,5.1-48.8,13.6-75.6,15.3c9.8,10.9,14.3,21.1,8.2,28.7c-18.4,22.8-94.3-24.9-120.8-42.7c-0.6,4.3-0.9,8.6-0.7,12.9l-20.3-15.6
	l2-35.9l3.4-60.8l4.3-76.3c-1.3-3.3-2.5-6.6-3.4-10c-6.2-22.1-13.8-66.3-19.6-103.3c-4.7-29.8-8.2-55-8.9-60.4
	c-0.1-0.7-0.1-1.1-0.1-1.1l112.4-49.7c8,18.5,45.3,24.1,45.3,24.1c30.9-2.1,55.1-18.4,55.1-18.4L608.6,284.7z"/>
<path class="st0" d="M516.9,624.6c0,0-4.8,1.6-12.5,3.9c-17.1,5.1-48.8,13.6-75.6,15.3c-23.1,1.5-42.6-2.1-46.2-17.2
	c-1.5-6.5,0.6-11.8,5.4-16.2c14.1-13.1,51-17.8,80.2-19.4c8.3-0.5,15.9-0.7,22.3-0.7c10.8-0.1,17.9,0.1,17.9,0.1l0.2,0.7
	L516.9,624.6z"/>
<path class="st2" d="M374.7,48.8L361,43.3c0,0,28.7-31.7,68.7-28.9L418.5,2.1c0,0,27.5-11,52.5,17.9c13.1,15.2,28.3,33,37.8,53.2
	h14.7l-6.1,13.5l21.5,13.5l-22.1-2.4c1.3,7.4,1.5,15,0.6,22.4c-0.9,7.5-4.8,14.3-10.6,19l0,0c0,0-17.1-35.3-17.1-40.8v13.8
	c0,0-13.7-12.4-13.7-20.6l-7.5,9.6L464.7,86l-46.2,15.1l7.5-12.4l-28.7,4.1l11.2-15.1c0,0-32.5,17.9-33.7,33
	c-1.2,15.1-10.8,29.5-10.8,29.5S338.5,69.5,374.7,48.8z"/>
<path class="st1" d="M688.5,542.6c-7.5,8.1-26,20.3-48.5,33.6c-8.4,4.9-17.3,10-26.4,15c-21.7,12-44.4,24-63.1,33.6
	c-24.4,12.5-42,21.2-42,21.2s-1.5-7.6-4-17.4c-3.3-13-8.2-29.9-13.4-37.4c-0.2-0.3-0.4-0.5-0.5-0.7c-1.5-2-3-3.1-4.5-3.1l74.4-46.1
	l32.2-19.9l-23.2-55.3l-29.1-69.4l17.5-55.8l17.6-56.1h33c0,0,10.9,23.9,24.9,57.2c2.1,5,4.2,10.2,6.5,15.5
	C668.7,427.4,704.6,525.1,688.5,542.6z"/>
<path class="st0" d="M437,672.6c-18.4,22.8-94.3-24.9-120.8-42.7c-5.8-3.9-9.2-6.3-9.2-6.3l24.3-32.4l7.7-10.2c0,0,6.9,3.7,17,9.6
	c0.4,0.2,0.7,0.4,1.1,0.7c8.8,5.2,19.8,11.9,30.9,19.4c15.3,10.4,30.8,22.2,40.8,33.3C438.6,654.8,443.1,665,437,672.6z"/>
<path class="st1" d="M356,590.5c-2.7,0-5.4,0.2-8.1,0.7c-23,4-29.8,24.8-31.7,38.7c-0.6,4.3-0.9,8.6-0.7,12.9l-20.3-15.6l-7.4-5.7
	c-17.8-6.2-33.7-17.2-47.4-30.2c-11.9-11.5-22.6-24.2-32-37.9c-9.3-13.5-17.5-27.7-24.7-42.4c-4.1-8.3-4.2-18-0.4-26.5l25.1-56
	l36.8-81.9c0.3-1.9,0.6-3.9,0.9-5.7c7.3-41.8,26.8-60.4,26.8-60.4h14.9l10,60.4l12.4,75l-8.7,28.3l-20.1,65.4l19.2,20.8L356,590.5z"
	/>
<path class="st3" d="M372.9,415.8l12.8,14.9c4.7-0.9,9.7-2,14.8-3.2l-3.7-11.7l9,10.5c54-13.3,120.9-39.1,120.9-39.1
	s-72.3,5.3-126.2-6.5c-23.9-5.2-48.4,6.6-58.2,29c-5.7,13-4.8,24.3,15.4,24.3c6.8-0.1,13.6-0.8,20.4-1.9L372.9,415.8z"/>
<path class="st4" d="M663.7,660.4v6.1c0,1.7-0.3,3.3-0.9,4.9c-0.3,0.7-0.6,1.4-1,2c-2.4,4.1-6.8,6.6-11.5,6.6H203.7
	c-4.7,0-9.1-2.5-11.5-6.6c-0.4-0.6-0.7-1.3-1-2c-0.6-1.6-0.9-3.2-0.9-4.9v-6.1c0-7.4,6-13.4,13.4-13.4c0,0,0,0,0,0h25.7v-2.8
	c0-0.3,0.2-0.6,0.6-0.6c0,0,0,0,0,0h13.4c0.3,0,0.6,0.2,0.6,0.6c0,0,0,0,0,0v2.8h8.4v-2.8c0-0.3,0.2-0.6,0.6-0.6c0,0,0,0,0,0h13.4
	c0.3,0,0.6,0.2,0.6,0.6c0,0,0,0,0,0v2.8h8.4v-2.8c0-0.3,0.2-0.6,0.6-0.6c0,0,0,0,0,0h13.4c0.3,0,0.6,0.2,0.6,0.6c0,0,0,0,0,0v2.8
	h8.4v-2.8c0-0.3,0.2-0.6,0.6-0.6c0,0,0,0,0,0h13.4c0.3,0,0.6,0.2,0.6,0.6c0,0,0,0,0,0v2.8h8.4v-2.8c0-0.3,0.2-0.6,0.6-0.6
	c0,0,0,0,0,0h13.4c0.3,0,0.6,0.2,0.6,0.6c0,0,0,0,0,0v2.8h8.4v-2.8c0-0.3,0.2-0.6,0.6-0.6c0,0,0,0,0,0h13.4c0.3,0,0.6,0.2,0.6,0.6
	c0,0,0,0,0,0v2.8h8.4v-2.8c0-0.3,0.2-0.6,0.6-0.6c0,0,0,0,0,0h105.2c0.3,0,0.6,0.2,0.6,0.6c0,0,0,0,0,0v2.8h8.4v-2.8
	c0-0.3,0.2-0.6,0.6-0.6c0,0,0,0,0,0h13.4c0.3,0,0.6,0.3,0.6,0.6v2.8h8.4v-2.8c0-0.3,0.2-0.6,0.6-0.6c0,0,0,0,0,0h13.4
	c0.3,0,0.6,0.2,0.6,0.6c0,0,0,0,0,0v2.8h8.4v-2.8c0-0.3,0.2-0.6,0.6-0.6c0,0,0,0,0,0h13.4c0.3,0,0.6,0.2,0.6,0.6c0,0,0,0,0,0v2.8
	h8.4v-2.8c0-0.3,0.2-0.6,0.6-0.6c0,0,0,0,0,0h13.4c0.3,0,0.6,0.3,0.5,0.6v2.8h8.4v-2.8c0-0.3,0.2-0.6,0.6-0.6c0,0,0,0,0,0h13.4
	c0.3,0,0.6,0.2,0.6,0.6c0,0,0,0,0,0v2.8h8.4v-2.8c0-0.3,0.2-0.6,0.6-0.6c0,0,0,0,0,0h13.4c0.3,0,0.6,0.2,0.6,0.6c0,0,0,0,0,0v2.8
	h39.2C657.6,647,663.6,653,663.7,660.4C663.7,660.4,663.7,660.4,663.7,660.4z"/>
<rect x="60.5" y="671.3" class="st5" width="733" height="2"/>
<path class="st4" d="M627.7,404.8H461.3v-3.4h-75.5v3.4H218.7c-6.2,0-11.3,5-11.3,11.3l0,0v227.9c0,6.2,5,11.3,11.3,11.3h409
	c6.2,0,11.3-5,11.3-11.3V416C639,409.8,633.9,404.8,627.7,404.8z"/>
<circle class="st6" cx="423.5" cy="484.3" r="25"/>
<circle class="st7" cx="415.5" cy="493.3" r="25"/>
<rect x="80.4" y="661.2" class="st1" width="28" height="28"/>
<path class="st8" d="M91.4,639.2v34h34v-34H91.4z M124,671.7h-31v-31h31V671.7z"/>
<rect x="728.4" y="661.2" class="st1" width="28" height="28"/>
<path class="st8" d="M739.5,639.2v34h34v-34H739.5z M772,671.7h-31v-31h31V671.7z"/>
<circle class="st3" cx="94.6" cy="150.8" r="79.3"/>
<path class="st8" d="M122.2,56.5c-7.2-0.9-14.5-0.9-21.6,0C67.9,60.8,40.7,83.7,31,115.2c-2.2,7-3.4,14.3-3.7,21.7
	c0,1-0.1,2.1-0.1,3.1c0,46.5,37.7,84.1,84.1,84.1c1.8,0,3.6-0.1,5.3-0.2c4.1-0.3,8.3-0.8,12.3-1.7c45.4-9.8,74.4-54.5,64.6-100
	C186.2,87.4,157.6,61.1,122.2,56.5L122.2,56.5z M137.7,217.3L137.7,217.3c-6.8,2.3-13.8,3.7-21,4.2c-1.8,0.1-3.6,0.2-5.3,0.2
	c-45.1-0.1-81.7-36.6-81.7-81.7c0-1,0-2.1,0.1-3.1c1.7-43.9,37.8-78.6,81.7-78.7c45.1,0,81.7,36.6,81.7,81.8
	C193.2,175,170.9,206.1,137.7,217.3L137.7,217.3z"/>
<rect x="110.2" y="63" class="st8" width="2.4" height="16.8"/>
<rect x="61.8" y="83.1" transform="matrix(0.7071 -0.7071 0.7071 0.7071 -46.2616 71.3183)" class="st8" width="2.4" height="16.8"/>
<rect x="34.5" y="138.8" class="st8" width="16.8" height="2.4"/>
<rect x="54.5" y="187.2" transform="matrix(0.7071 -0.7071 0.7071 0.7071 -114.7829 99.7008)" class="st8" width="16.8" height="2.4"/>
<rect x="151.4" y="90.3" transform="matrix(0.7071 -0.7071 0.7071 0.7071 -17.8792 139.8396)" class="st8" width="16.8" height="2.4"/>
<rect x="171.5" y="138.8" class="st8" width="16.8" height="2.4"/>
<rect x="158.7" y="180" transform="matrix(0.7071 -0.7071 0.7071 0.7071 -86.4004 168.222)" class="st8" width="2.4" height="16.8"/>
<rect x="110.2" y="200.1" class="st8" width="2.4" height="16.8"/>
<path class="st8" d="M115,135.1c-2.1-1.6-5.1-1.6-7.2,0c-0.7,0.5-1.3,1.2-1.7,2c-1.5,2.9-0.4,6.6,2.5,8.1s6.6,0.4,8.1-2.5
	C118.1,140.1,117.4,136.9,115,135.1L115,135.1z M111.4,143.6c-2,0-3.6-1.6-3.6-3.6c0-0.7,0.2-1.4,0.6-2c1.1-1.6,3.4-2,5-0.9
	c1.6,1.1,2,3.4,0.9,5C113.7,143,112.6,143.6,111.4,143.6L111.4,143.6z"/>
<rect x="100.6" y="35.4" class="st8" width="21.6" height="21.6"/>
<ellipse class="st8" cx="111.4" cy="28.8" rx="28.9" ry="10.2"/>
<rect x="107.8" y="94.3" class="st8" width="7.2" height="40.9"/>
<rect y="220.4" class="st8" width="226" height="2.4"/>
<path class="st1" d="M150.6,599.8c0.9,32-17.7,43.7-41.2,44.3c-0.5,0-1.1,0-1.6,0c-1.1,0-2.2,0-3.2-0.1c-21.2-0.9-38-12.1-38.8-41.8
	c-0.9-30.7,37.3-70.7,40.1-73.7l0,0c0.1-0.1,0.2-0.2,0.2-0.2S149.7,567.8,150.6,599.8z"/>
<path class="st8" d="M107.7,639.3l14.9-22.1l-14.9,24.5l0,2.5c-1.1,0-2.2,0-3.2-0.1l0.7-32l0-0.2l0,0l0.1-3l-16.3-23.7l16.3,21.4
	l0.1,0.6l0.6-24.2l-14.1-24.5l14.1,20.3l-0.1-50.1l0-0.2l0,0.2l0.9,39.5l12.8-16l-12.8,19.4l0.3,21.6l11.8-21.1l-11.8,24.3l0.2,12
	l17.2-29.4l-17.1,33.6L107.7,639.3z"/>
<path class="st1" d="M798.6,599.8c0.9,32-17.7,43.7-41.2,44.3c-0.5,0-1.1,0-1.6,0c-1.1,0-2.2,0-3.2-0.1c-21.2-0.9-38-12.1-38.8-41.8
	c-0.9-30.7,37.3-70.7,40.1-73.7l0,0c0.1-0.1,0.2-0.2,0.2-0.2S797.7,567.8,798.6,599.8z"/>
<path class="st8" d="M755.7,639.3l14.9-22.1l-14.9,24.5l0,2.5c-1.1,0-2.2,0-3.2-0.1l0.7-32l0-0.2l0,0l0.1-3l-16.3-23.7l16.3,21.4
	l0.1,0.6l0.6-24.2l-14.1-24.5l14.1,20.3l-0.1-50.1l0-0.2l0,0.2l0.9,39.5l12.8-16l-12.8,19.4l0.3,21.6l11.8-21.1l-11.8,24.3l0.2,12
	l17.2-29.4l-17.1,33.6L755.7,639.3z"/>
</svg>
